<?xml version="1.0" standalone="no"?><!DOCTYPE svg PUBLIC "-//W3C//DTD SVG 1.1//EN" "http://www.w3.org/Graphics/SVG/1.1/DTD/svg11.dtd"><svg t="1587439429074" class="icon" viewBox="0 0 1024 1024" version="1.1" xmlns="http://www.w3.org/2000/svg" p-id="10196" xmlns:xlink="http://www.w3.org/1999/xlink" width="32" height="32"><defs><style type="text/css"></style></defs><path d="M568.533 259.747h-50.225c-8.418 0-15.252 6.693-15.252 14.951v50.798c0 8.258 6.834 14.951 15.252 14.951h50.225c8.42 0 15.254-6.693 15.254-14.951v-50.798c-0.01-8.258-6.834-14.951-15.254-14.951z m0 161.604h-50.225c-8.418 0-15.252 6.764-15.252 15.111v50.375c0 8.35 6.834 15.113 15.252 15.113h50.225c8.42 0 15.254-6.764 15.254-15.113v-50.375c-0.01-8.348-6.834-15.111-15.254-15.111z m327.174 443.863H846.25V636.729c0-41.156-37.059-74.521-78.803-74.521h-42.379V186.981c0-37.998-31.244-68.799-69.768-68.799H250.03c-38.523 0-69.768 30.811-69.768 68.799v678.232h-51.959c-16.062 0-29.074 5.26-29.074 21.1v-0.334c0 15.83 13.013 19.838 29.074 19.838h767.402c16.051 0 29.063-6.521 29.063-22.361v1.584c0.002-15.828-13.01-19.826-29.061-19.826z m-231.754-10.781c0 6.34-5.209 11.469-11.621 11.469h-77.146c-6.41 0-11.609-5.129-11.609-11.469v-99.084c0-6.34 5.209-11.469 11.609-11.469h77.137c6.422 0 11.621 5.129 11.621 11.469v99.084h0.009z m0-162.047c0 6.33-5.209 11.467-11.621 11.467h-77.146c-6.41 0-11.609-5.137-11.609-11.467v-77.398c0-6.342 5.209-12.096 11.609-12.096h77.137c6.422 0 11.621 5.129 11.621 11.469v78.025h0.009z m20.705-130.178h-87.98c-41.744 0-73.059 33.365-73.059 74.521v228.484H220.523V204.396c0-25.328 20.826-45.861 46.498-45.861h371.117c25.693 0 46.508 20.533 46.508 45.861v357.813h0.012v-0.001zM805.85 854.433c0 6.34-5.209 11.469-11.631 11.469h-77.762c-6.43 0-11.629-5.129-11.629-11.469v-99.084c0-6.34 5.209-11.469 11.629-11.469h77.762c6.432 0 11.631 5.129 11.631 11.469v99.084z m0-162.047c0 6.33-5.209 11.467-11.631 11.467h-77.762c-6.43 0-11.629-5.137-11.629-11.467V614.36c0-6.34 5.209-11.469 11.629-11.469h77.762c6.432 0 11.631 5.129 11.631 11.469v78.026zM386.951 421.351h-50.586c-8.369 0-15.162 6.764-15.162 15.111v50.375c0 8.35 6.793 15.113 15.162 15.113h50.586c8.369 0 15.163-6.764 15.163-15.113v-50.375c0-8.348-6.794-15.111-15.163-15.111z m0-161.604h-50.586c-8.369 0-15.162 6.693-15.162 14.951v50.798c0 8.258 6.793 14.951 15.162 14.951h50.586c8.369 0 15.163-6.693 15.163-14.951v-50.798c0-8.258-6.794-14.951-15.163-14.951z m0 323.287h-50.586c-8.369 0-15.162 6.693-15.162 14.951v50.799c0 8.258 6.793 14.951 15.162 14.951h50.586c8.369 0 15.163-6.693 15.163-14.951v-50.799c0-8.257-6.794-14.951-15.163-14.951z" p-id="10197"></path></svg>