<?xml version="1.0" standalone="no"?><!DOCTYPE svg PUBLIC "-//W3C//DTD SVG 1.1//EN" "http://www.w3.org/Graphics/SVG/1.1/DTD/svg11.dtd"><svg t="1576829891475" class="icon" viewBox="0 0 1024 1024" version="1.1" xmlns="http://www.w3.org/2000/svg" p-id="15582" xmlns:xlink="http://www.w3.org/1999/xlink" width="32" height="32"><defs><style type="text/css"></style></defs><path d="M843.190857 804.571429a121.929143 121.929143 0 0 0-223.524571 0H355.57181a121.929143 121.929143 0 0 0-223.524572 0H48.761905V487.619048c0-134.656 109.153524-243.809524 243.809524-243.809524h73.142857v390.095238h609.523809v151.698286L902.095238 804.571429h-58.904381zM292.571429 316.952381a170.666667 170.666667 0 0 0-170.666667 170.666667v48.761904h170.666667v-219.428571z m121.904761-219.428571h463.238096a97.52381 97.52381 0 0 1 97.523809 97.523809v390.095238H414.47619V97.52381z m316.952381 828.95238a73.142857 73.142857 0 1 1 0-146.285714 73.142857 73.142857 0 0 1 0 146.285714z m-487.619047 0a73.142857 73.142857 0 1 1 0-146.285714 73.142857 73.142857 0 0 1 0 146.285714z m576.828952-519.411809H828.952381a24.380952 24.380952 0 0 0 24.380952-24.380952v-48.761905a24.380952 24.380952 0 0 0-24.380952-24.380953h-8.313905a146.139429 146.139429 0 0 0-26.770286-46.299428l4.169143-7.241143a24.380952 24.380952 0 0 0-8.923428-33.304381l-42.22781-24.380952a24.380952 24.380952 0 0 0-33.304381 8.923428l-4.169143 7.216762a147.114667 147.114667 0 0 0-53.491809 0l-4.144762-7.216762a24.380952 24.380952 0 0 0-33.328762-8.923428l-42.227809 24.380952a24.380952 24.380952 0 0 0-8.923429 33.304381l4.169143 7.241143a146.139429 146.139429 0 0 0-26.770286 46.323809H536.380952a24.380952 24.380952 0 0 0-24.380952 24.380953v48.761905a24.380952 24.380952 0 0 0 24.380952 24.380952h8.313905a146.139429 146.139429 0 0 0 26.770286 46.275048l-4.169143 7.241142a24.380952 24.380952 0 0 0 8.923429 33.304381l42.227809 24.380953a24.380952 24.380952 0 0 0 33.304381-8.923429l4.169143-7.216762a147.114667 147.114667 0 0 0 53.491809 0l4.144762 7.216762a24.380952 24.380952 0 0 0 33.328762 8.923429l42.22781-24.380953a24.380952 24.380952 0 0 0 8.923428-33.304381l-4.169143-7.241142a146.139429 146.139429 0 0 0 26.770286-46.299429z m-137.971809 24.380952a73.142857 73.142857 0 1 1 0-146.285714 73.142857 73.142857 0 0 1 0 146.285714z" p-id="15583"></path></svg>