<?xml version="1.0" standalone="no"?><!DOCTYPE svg PUBLIC "-//W3C//DTD SVG 1.1//EN" "http://www.w3.org/Graphics/SVG/1.1/DTD/svg11.dtd"><svg t="1566961773252" class="icon" viewBox="0 0 1024 1024" version="1.1" xmlns="http://www.w3.org/2000/svg" p-id="11666" xmlns:xlink="http://www.w3.org/1999/xlink" width="32" height="32"><defs><style type="text/css"></style></defs><path d="M512 0C230.4 0 0 230.4 0 512 0 793.6 230.4 1024 512 1024 793.6 1024 1024 793.6 1024 512 1024 230.4 793.6 0 512 0L512 0 512 0ZM512 921.6C286.72 921.6 102.4 737.28 102.4 512 102.4 286.72 286.72 102.4 512 102.4 737.28 102.4 921.6 286.72 921.6 512 921.6 737.28 737.28 921.6 512 921.6L512 921.6ZM537.6 256 460.8 256 460.8 563.2 727.04 727.04 768 660.48 537.6 522.24 537.6 256 537.6 256Z" p-id="11667"></path></svg>