<?xml version="1.0" standalone="no"?><!DOCTYPE svg PUBLIC "-//W3C//DTD SVG 1.1//EN" "http://www.w3.org/Graphics/SVG/1.1/DTD/svg11.dtd"><svg t="1566955484291" class="icon" viewBox="0 0 1024 1024" version="1.1" xmlns="http://www.w3.org/2000/svg" p-id="10860" xmlns:xlink="http://www.w3.org/1999/xlink" width="32" height="32"><defs><style type="text/css"></style></defs><path d="M523.377778 91.022222C291.248356 91.022222 102.4 279.870578 102.4 511.988622 102.4 744.095289 291.248356 932.977778 523.377778 932.977778 755.484444 932.977778 944.355556 744.1408 944.355556 512.034133S755.518578 91.022222 523.377778 91.022222z m0 787.7632c-202.262756 0-366.819556-164.545422-366.819556-366.7968S321.115022 145.180444 523.377778 145.180444c202.262756 0 366.819556 164.5568 366.819555 366.808178 0 202.251378-164.568178 366.7968-366.819555 366.7968zM509.701689 330.752c2.594133 2.958222 62.600533 73.363911-0.887467 168.5504-17.646933 26.476089-28.558222 53.395911-32.438044 80.042667a150.1184 150.1184 0 0 0 4.130133 63.214933c10.194489 35.703467 30.321778 56.695467 30.526578 56.888889a15.712711 15.712711 0 1 0 22.493867-21.9136c-0.147911-0.159289-15.792356-16.497778-23.358578-45.010489-9.762133-36.750222-1.183289-76.788622 24.803555-115.746133 22.675911-33.9968 34.133333-69.108622 34.042311-104.368356v-1.058133c-0.546133-60.757333-35.4304-101.034667-35.771733-101.410134a15.735467 15.735467 0 0 0-23.563378 20.844089l0.022756-0.034133z m-151.677156 1.353956c2.594133 2.946844 62.600533 73.352533-0.898844 168.539022-17.635556 26.464711-28.558222 53.407289-32.392533 80.042666a150.1184 150.1184 0 0 0 4.130133 63.203556c10.183111 35.726222 30.321778 56.695467 30.526578 56.911644a15.724089 15.724089 0 0 0 22.493866-21.959111c-0.159289-0.159289-15.792356-16.497778-23.358577-45.010489-9.762133-36.750222-1.183289-76.777244 24.803555-115.746133 22.6304-33.985422 34.121956-69.097244 34.042311-104.368355v-1.058134c-0.534756-60.757333-35.419022-101.034667-35.760355-101.410133a15.735467 15.735467 0 0 0-23.563378 20.855467h-0.022756z m294.661689-2.616889c2.594133 2.958222 62.600533 73.363911-0.898844 168.5504-17.635556 26.464711-28.558222 53.395911-32.426667 80.042666a150.1184 150.1184 0 0 0 4.130133 63.203556c10.194489 35.714844 30.3104 56.706844 30.526578 56.911644a15.712711 15.712711 0 0 0 22.482489-21.959111c-0.159289-0.159289-15.780978-16.497778-23.358578-44.999111-9.750756-36.7616-1.171911-76.8 24.814934-115.757511 22.619022-33.985422 34.133333-69.097244 34.042311-104.368356v-1.046755c-0.546133-60.757333-35.441778-101.034667-35.828622-101.421511a15.735467 15.735467 0 0 0-23.552 20.844089h0.068266z" p-id="10861"></path></svg>