<?xml version="1.0" standalone="no"?><!DOCTYPE svg PUBLIC "-//W3C//DTD SVG 1.1//EN" "http://www.w3.org/Graphics/SVG/1.1/DTD/svg11.dtd"><svg t="1566955449540" class="icon" viewBox="0 0 1024 1024" version="1.1" xmlns="http://www.w3.org/2000/svg" p-id="10655" xmlns:xlink="http://www.w3.org/1999/xlink" width="32" height="32"><defs><style type="text/css"></style></defs><path d="M1010.368 379.968c-1.728-12.032-4.864-23.552-8.256-34.944-6.144-21.184-14.976-41.024-26.24-59.328-43.392-71.488-121.024-120.128-210.368-121.408-10.88-18.432-23.744-35.136-37.632-50.88-13.888-15.744-29.504-29.696-46.016-42.496C656 50.944 627.648 34.048 596.864 22.4c-19.52-7.424-39.68-12.864-60.48-16.576C517.44 2.432 498.176 0 478.464 0 319.424 0 184.512 110.336 152.32 264.32 70.272 291.648 10.88 368.96 10.88 460.16c0 113.856 92.608 206.464 206.4 206.464 41.152 0 80.128-11.84 113.92-34.304 45.568 22.528 96.064 34.304 147.264 34.304 53.056 0 105.536-12.736 152.384-36.928 39.36 24.192 84.096 36.928 131.136 36.928 131.136 0 238.976-101.056 249.984-229.44 0.64-7.168 1.152-14.464 1.152-21.696 0-12.16-1.088-23.872-2.752-35.52m-67.84 54.72c-9.728 91.072-86.976 162.304-180.48 162.304-40.64 0-78.976-13.056-110.976-37.824-15.168-11.776-37.056-9.024-48.832 6.272-0.256 0.192-0.384 0.512-0.512 0.832-37.696 19.968-80.128 30.656-123.2 30.656-45.696 0-90.624-11.904-130.048-34.24-9.856-5.568-21.504-5.76-31.168-1.6-5.568 0.96-11.008 3.008-15.744 6.784-24.192 19.008-53.376 29.056-84.224 29.056-75.392 0-136.768-61.376-136.768-136.832 0-75.392 61.376-136.704 136.768-136.704 38.08 0 74.688 16 100.544 43.968 12.992 14.08 35.072 14.976 49.216 1.92 14.08-12.992 15.04-35.136 1.92-49.216-36.736-39.744-87.872-63.488-141.824-66.112 33.92-108.608 134.272-184.32 251.328-184.32 7.36 0 14.784 0.704 22.08 1.344 19.584 1.6 38.72 5.504 57.216 11.392 35.648 11.328 68.16 30.464 96.128 55.232 12.736 11.392 24.896 23.68 35.392 37.632-6.272 1.792-12.352 4.16-18.368 6.528-7.616 2.944-14.72 7.232-22.144 10.944-6.08 3.136-12.352 5.568-18.176 9.088-11.008 6.72-21.76 14.016-31.616 22.464-14.656 12.48-16.384 34.496-3.904 49.088 12.352 14.656 34.368 16.448 49.088 3.968 6.016-5.184 12.608-9.408 19.264-13.632 17.28-11.2 36.096-19.2 56-24.064 13.888-3.328 28.032-5.696 42.496-5.696 67.648 0 126.272 37.504 157.504 92.544 8.64 15.232 15.488 31.68 19.52 49.216 0.512 2.624 0.384 5.376 0.896 8 1.856 10.432 3.648 20.8 3.648 31.744 0.064 6.4-0.448 12.8-1.024 19.264M200.128 923.904c0 12.16-8.768 22.144-19.456 22.144s-19.52-9.92-19.52-22.144v-172.8c0-12.224 8.832-22.144 19.52-22.144s19.456 9.856 19.456 22.144v172.8zM317.12 948.16c0 12.16-8.768 22.208-19.52 22.208-10.688 0-19.456-9.984-19.456-22.208v-172.8c0-12.16 8.768-22.144 19.456-22.144 10.752 0 19.52 9.92 19.52 22.144v172.8zM434.048 975.872c0 12.288-8.704 22.144-19.456 22.144-10.752 0-19.52-9.792-19.52-22.144v-172.8c0-12.224 8.768-22.144 19.52-22.144 10.752 0 19.456 9.856 19.456 22.144v172.8zM551.04 1001.856c0 12.224-8.704 22.144-19.52 22.144-10.688 0-19.456-9.92-19.456-22.144v-172.8c0-12.224 8.704-22.208 19.456-22.208 10.816 0 19.52 9.92 19.52 22.208v172.8zM668.032 975.872c0 12.288-8.768 22.144-19.52 22.144s-19.52-9.792-19.52-22.144v-172.8c0-12.224 8.768-22.144 19.52-22.144s19.52 9.856 19.52 22.144v172.8zM784.896 948.16c0 12.16-8.64 22.208-19.392 22.208-10.88 0-19.52-9.984-19.52-22.208v-172.8c0-12.16 8.64-22.144 19.52-22.144 10.752 0 19.392 9.92 19.392 22.144v172.8zM901.888 923.904c0 12.16-8.64 22.144-19.52 22.144-10.752 0-19.392-9.92-19.392-22.144v-172.8c0-12.224 8.64-22.144 19.392-22.144 10.88 0 19.52 9.856 19.52 22.144v172.8z" fill="" p-id="10656"></path></svg>